inDegrees=yes
name=ik_S49_A11_T02
DataType=double
version=3
OpenSimVersion=4.3-2021-08-27-4bc7ad9
endheader
time	pelvis_tilt	pelvis_list	pelvis_rotation	pelvis_tx	pelvis_ty	pelvis_tz	hip_flexion_r	hip_adduction_r	hip_rotation_r	knee_angle_r	knee_angle_r_beta	ankle_angle_r	subtalar_angle_r	mtp_angle_r	hip_flexion_l	hip_adduction_l	hip_rotation_l	knee_angle_l	knee_angle_l_beta	ankle_angle_l	subtalar_angle_l	mtp_angle_l	lumbar_extension	lumbar_bending	lumbar_rotation	arm_flex_r	arm_add_r	arm_rot_r	elbow_flex_r	pro_sup_r	wrist_flex_r	wrist_dev_r	arm_flex_l	arm_add_l	arm_rot_l	elbow_flex_l	pro_sup_l	wrist_flex_l	wrist_dev_l
4.100000000000001	0.1436544962332362	-0.2952419245160288	41.81989586230599	0	0.9399999999999999	0	22.34716748127048	-7.871454246882348	-6.902121686462171	23.99164077411616	0.4187331244640481	0	0	0	22.34716748127048	-7.871454246882348	-6.902121686462171	23.99164077411616	0.4187331244640481	0	0	0	-0.2612858121972748	0.005810248481363307	13.5824388358455	-0.09634743771514606	-1.811730316844526	4.970124258065071	4.428816196004067	87.89152202557479	0	0	-0.6012850655552257	-1.401152852535857	-2.86459182794128	2.585353919343731	95.91831639897221	0	0
4.12	0.1831239214161514	-0.243213637036907	41.86220399158393	0	0.9399999999999999	0	22.72129714577097	-7.949906482991787	-6.987811223243845	24.48793455694836	0.4273950850316477	0	0	0	22.72129714577097	-7.949906482991787	-6.987811223243845	24.48793455694836	0.4273950850316477	0	0	0	-0.1958159739009383	0.01597512603330892	13.48122165822475	1.213336884288378	-1.87682301154561	5.050221599603212	8.688714975366633	87.55829702572071	0	0	-0.7780231238692445	-1.392872207389108	-2.996664800847414	2.724616597300563	96.09035163939653	0	0
4.14	0.2269212067029598	-0.1890160098723629	41.70373287009335	0	0.9399999999999999	0	22.72792758787775	-7.951849727183769	-6.989647056195081	24.49505256871214	0.4275193177731214	0	0	0	22.72792758787775	-7.951849727183769	-6.989647056195081	24.49505256871214	0.4275193177731214	0	0	0	-0.1263383388759079	0.02525278385162045	13.55196508917269	2.789334366110813	-1.792826736339839	4.5940465340302	8.79733751517106	87.86656390417866	0	0	-0.8988542941427787	-1.393861533395762	-2.993308074474457	2.762551246386598	96.25059464971959	0	0
4.159999999999999	0.2752197066963558	-0.1199531029401333	41.52352008033085	0	0.9399999999999999	0	22.7552663996523	-7.95986637142799	-6.997223793154839	24.52430861660305	0.428029932134939	0	0	0	22.7552663996523	-7.95986637142799	-6.997223793154839	24.52430861660305	0.428029932134939	0	0	0	-0.04295271651010106	0.04145320311287287	13.67141668057424	4.633946983807374	-1.61867857493842	3.818749896459846	10.81852863469788	88.58849354834805	0	0	-1.047807046522179	-1.385114362654196	-2.910349831902862	2.75547103463449	96.40802871548441	0	0
4.179999999999999	0.3018739385215705	-0.08500093532115811	41.19133658168764	0	0.9399999999999999	0	22.78357692445494	-7.96812960114543	-7.005052555334289	24.55463327549805	0.4285591972772009	0	0	0	22.78357692445494	-7.96812960114543	-7.005052555334289	24.55463327549805	0.4285591972772009	0	0	0	0.005038801007288283	0.03986582914803706	13.96537705981021	9.12311356700709	-0.8969963120828166	2.018213244986385	10.63928610170646	90.28885193698233	0	0	-1.08340910681189	-1.365298118853033	-2.749331073637936	2.733509384255377	96.49063457575453	0	0
4.199999999999998	0.3586098419872432	-0.02076253134940456	40.95505502368675	0	0.9399999999999999	0	22.81092220998703	-7.976102959663531	-7.01261211252412	24.58390213995602	0.4290700353303124	0	0	0	22.81092220998703	-7.976102959663531	-7.01261211252412	24.58390213995602	0.4290700353303124	0	0	0	0.09296772009942743	0.04587158872574333	14.10055429373153	11.68727416751909	-0.4043510758787871	1.127668929117498	13.00315558095549	91.12846619757141	0	0	-1.200880436040491	-1.379904421078191	-2.594485070513623	2.707148635871095	96.55763606719594	0	0
4.219999999999998	0.4085753715336167	0.03317993808237177	40.75546544363785	0	0.9399999999999999	0	22.83411957940873	-7.982842836091979	-7.019014116286861	24.60874873819896	0.429503690277572	0	0	0	22.83411957940873	-7.982842836091979	-7.019014116286861	24.60874873819896	0.429503690277572	0	0	0	0.1685475195591142	0.05015519505107315	14.21122067000771	14.39760948701057	0.1286186793346767	0.4582941623871788	15.58179274636408	91.80583099026906	0	0	-1.293099685527133	-1.404034130601092	-2.422776790612696	2.698212952544613	96.64068901038556	0	0
